<?xml version="1.0" encoding="utf-8"?>
<!-- Generator: Adobe Illustrator 16.0.4, SVG Export Plug-In . SVG Version: 6.00 Build 0)  -->
<!DOCTYPE svg PUBLIC "-//W3C//DTD SVG 1.1//EN" "http://www.w3.org/Graphics/SVG/1.1/DTD/svg11.dtd">
<svg version="1.1" id="Layer_1" xmlns="http://www.w3.org/2000/svg" xmlns:xlink="http://www.w3.org/1999/xlink" x="0px" y="0px"
	 width="500px" height="50px" viewBox="0 0 500 50" enable-background="new 0 0 500 50" xml:space="preserve">
<text transform="matrix(1 0 0 1 67.0225 35.8994)" font-family="'AkzidenzGroteskBE-Bold'" font-size="34.6189">All About Electric Guitars</text>
<g>
	<polygon fill="#231F20" points="34.975,44.11 16.657,44.11 16.657,5.728 34.975,5.773 	"/>
	<path fill="#FFFFFF" d="M16.672,7.38l-0.031,36.872l12.66,0.021c0,0,3.391-4.402,2.874-9.269c-0.125-1.723-0.56-3.328-1.148-4.771
		c-0.684-1.68-1.576-3.142-2.426-4.315c-1.447-1.996-3.592-3.56-3.46-5.232c0.132-1.673,1.122-2.573,1.651-4.381
		c0.482-1.649,0.473-3.217,0.462-3.479c-0.022-0.551-0.132-1.321-0.638-1.432c-0.507-0.11-0.77,0.117-1.233,0.661
		c-0.463,0.543-0.742,1.034-1.013,1.262c-0.749,0.631-1.468,0.778-2.334,0.705c-0.866-0.074-1.707-0.43-2.444-2.048
		c-0.375-0.823-0.836-2.804-0.836-3.904C17.854,7.753,16.672,7.38,16.672,7.38z"/>
	<polygon fill="#231F20" points="18.865,11.685 18.865,14.712 16.641,14.69 16.641,11.315 16.685,5.773 18.865,5.729 	"/>
	<circle fill="#231F20" cx="28.253" cy="38.137" r="1.262"/>
	<circle fill="#231F20" cx="24.055" cy="35.069" r="1.262"/>
	<circle fill="#231F20" cx="28.253" cy="32.431" r="1.262"/>
	<path fill="#231F20" d="M19.79,17.031c0.039,1.614,0.041,1.673-0.851,1.673l-2.297-0.021c0-1.138,0-2.033,0-3.288l2.518,0.021
		C19.83,15.416,19.79,15.466,19.79,17.031L19.79,17.031z"/>
	<path fill="#231F20" d="M19.79,26.777c0.039,1.615,0.04,1.673-0.852,1.673l-2.297-0.021c0-0.829,0-2.229,0-3.289l2.517,0.022
		C19.83,25.163,19.79,25.212,19.79,26.777L19.79,26.777z"/>
	<path fill="#231F20" d="M20.802,28.7c0,0,3.42,0.519,3.919,0.527c0.499,0.01,1.527,0.088,1.806-0.264
		c0.279-0.353,0.308-0.852,0.22-1.276c-0.088-0.426-4.888-12.065-4.888-12.065s-0.235-0.749-0.573-1.145
		c-0.337-0.396-1.013-0.529-1.013-0.529L20.802,28.7z"/>
	<path fill="#231F20" d="M16.641,29.81l3.633-0.186c0,0,0.382-0.007,0.484,0.559c0.103,0.564-0.484,0.807-0.484,0.807l-3.608,0.18
		L16.641,29.81z"/>
	<path fill="#231F20" d="M16.641,33.487l4.426-0.018c0,0,0.536,0.286,0.543,0.808c0.007,0.521-0.426,0.808-0.426,0.808l-4.543-0.036
		V33.487z"/>
	<line fill="#231F20" stroke="#231F20" stroke-miterlimit="10" x1="16.979" y1="5.773" x2="17.147" y2="33.918"/>
	<line fill="#231F20" stroke="#231F20" stroke-miterlimit="10" x1="17.764" y1="5.773" x2="17.764" y2="33.768"/>
	<line fill="#231F20" stroke="#231F20" stroke-miterlimit="10" x1="18.498" y1="5.773" x2="18.498" y2="33.704"/>
	<circle fill="#231F20" cx="24.281" cy="40.745" r="1.262"/>
</g>
</svg>
