<?xml version="1.0" encoding="utf-8"?>
<!-- Generator: Adobe Illustrator 16.0.4, SVG Export Plug-In . SVG Version: 6.00 Build 0)  -->
<!DOCTYPE svg PUBLIC "-//W3C//DTD SVG 1.1//EN" "http://www.w3.org/Graphics/SVG/1.1/DTD/svg11.dtd">
<svg version="1.1" id="Layer_1" xmlns="http://www.w3.org/2000/svg" xmlns:xlink="http://www.w3.org/1999/xlink" x="0px" y="0px"
	 width="500px" height="50px" viewBox="0 0 500 50" enable-background="new 0 0 500 50" xml:space="preserve">
<g>
	<path d="M82.429,11.456l9.002,24.443h-6.509l-1.212-3.912h-9.002l-1.212,3.912h-6.509l9.071-24.443H82.429z M79.14,17.272
		c-0.312,1.247-0.658,2.528-1.004,3.774c-0.52,1.835-1.454,4.708-2.008,6.543h6.198L79.14,17.272z"/>
	<path d="M98.534,11.456v24.443h-5.332V11.456H98.534z"/>
	<path d="M108.642,11.456v24.443h-5.332V11.456H108.642z"/>
	<path d="M135.853,11.456l9.002,24.443h-6.509l-1.212-3.912h-9.002l-1.212,3.912h-6.509l9.071-24.443H135.853z M132.563,17.272
		c-0.312,1.247-0.658,2.528-1.004,3.774c-0.52,1.835-1.454,4.708-2.008,6.543h6.198L132.563,17.272z"/>
	<path d="M151.853,11.421v8.033c0.762-0.796,2.112-2.182,5.193-2.182c2.909,0,7.687,2.008,7.687,9.21
		c0,1.835-0.312,3.981-1.108,5.574c-0.935,2.042-3.151,4.327-6.751,4.327c-3.185,0-4.64-1.661-5.297-2.389l0.208,1.904h-5.124
		V11.421H151.853z M151.715,26.689c0,1.316,0.208,2.978,0.831,4.051c0.692,1.108,1.938,1.697,3.15,1.697
		c1.419,0,2.32-0.797,2.77-1.351c0.969-1.281,1.073-3.636,1.073-4.432c0-2.874-0.9-5.644-3.913-5.47
		C151.75,21.393,151.715,25.617,151.715,26.689z"/>
	<path d="M186.438,26.828c0,4.57-2.631,9.591-9.694,9.591c-5.09,0-9.729-2.908-9.729-9.591c0-5.539,3.497-9.937,10.421-9.556
		C184.812,17.688,186.438,23.539,186.438,26.828z M173.282,23.262c-0.658,1.039-0.9,2.285-0.9,3.532
		c0,2.873,1.385,5.401,4.363,5.401c2.874,0,4.293-2.32,4.293-5.159c0-2.008-0.485-3.566-1.489-4.536
		c-1.108-1.039-2.354-1.073-3.116-1.004C174.91,21.601,174.009,22.12,173.282,23.262z"/>
	<path d="M200.701,17.827h5.332v18.073h-5.332v-1.731c-0.519,0.589-0.831,0.936-1.8,1.42c-1.073,0.554-2.25,0.831-3.427,0.831
		c-1.177,0-3.358-0.173-4.605-1.904c-0.935-1.315-1.108-2.389-1.108-5.332V17.827h5.366v11.217c0,0.797,0,1.593,0.416,2.146
		c0.312,0.416,1.039,0.9,2.112,0.9c0.312,0,1.039,0,1.835-0.45c1.143-0.692,1.177-1.593,1.211-2.562V17.827z"/>
	<path d="M211.466,12.599h5.297v5.644h3.497v3.254h-3.531v8.136c-0.035,1.107-0.035,2.043,1.385,2.043l1.904-0.069v4.154
		c-1.143,0.173-1.835,0.277-2.805,0.277c-1.835,0-3.843-0.104-4.985-1.766c-0.727-1.073-0.762-2.354-0.762-4.086v-8.725h-2.631
		v-3.254h2.631V12.599z"/>
	<path d="M232.444,11.456h18.072v4.743h-11.979v4.432h11.183v4.64h-11.183v5.816h13.052v4.812h-19.146V11.456z"/>
	<path d="M260.14,11.456v24.443h-5.332V11.456H260.14z"/>
	<path d="M281.812,31.295c-0.623,0.935-1.246,1.835-2.182,2.7c-1.558,1.454-3.912,2.562-6.82,2.562c-5.366,0-9.14-3.428-9.14-9.349
		c0-4.362,2.146-9.971,9.278-9.971c1.073,0,4.189,0.104,6.509,2.597c2.354,2.527,2.493,6.059,2.562,8.102h-12.914
		c-0.035,2.25,1.246,4.501,4.12,4.501c2.908,0,3.912-1.904,4.569-3.186L281.812,31.295z M276.515,24.613
		c-0.104-0.762-0.243-1.766-1.005-2.562c-0.657-0.658-1.661-1.004-2.597-1.004c-1.28,0-2.181,0.624-2.7,1.177
		c-0.727,0.796-0.9,1.627-1.073,2.389H276.515z"/>
	<path d="M300.886,31.641c-0.657,1.039-1.385,2.182-2.839,3.22c-1.385,0.97-3.15,1.628-5.193,1.628
		c-3.462,0-8.967-2.077-8.967-9.452c0-5.263,3.047-9.694,9.071-9.694c2.008,0,5.436,0.554,7.721,4.328l-3.947,2.25
		c-0.312-0.658-0.658-1.281-1.523-1.904c-0.52-0.346-1.177-0.624-2.008-0.624c-2.874,0-3.843,3.289-3.843,5.471
		c0,2.389,1.177,5.4,4.016,5.4c0.277,0,1.593,0,2.7-1.246c0.45-0.52,0.624-0.935,0.797-1.454L300.886,31.641z"/>
	<path d="M303.065,12.599h5.298v5.644h3.497v3.254h-3.532v8.136c-0.034,1.107-0.034,2.043,1.385,2.043l1.904-0.069v4.154
		c-1.143,0.173-1.835,0.277-2.804,0.277c-1.835,0-3.844-0.104-4.986-1.766c-0.727-1.073-0.762-2.354-0.762-4.086v-8.725h-2.631
		v-3.254h2.631V12.599z"/>
	<path d="M319.787,19.696c1.177-1.004,2.458-1.8,5.228-2.077v4.708l-1.766,0.277c-2.562,0.45-3.323,0.831-3.323,3.116v10.179h-5.332
		V17.792h5.193V19.696z"/>
	<path d="M327.715,11.421h5.263v4.12h-5.263V11.421z M327.715,17.792h5.263v18.107h-5.263V17.792z"/>
	<path d="M353.541,31.641c-0.657,1.039-1.385,2.182-2.839,3.22c-1.385,0.97-3.15,1.628-5.193,1.628
		c-3.462,0-8.967-2.077-8.967-9.452c0-5.263,3.047-9.694,9.071-9.694c2.008,0,5.436,0.554,7.721,4.328l-3.947,2.25
		c-0.312-0.658-0.658-1.281-1.523-1.904c-0.52-0.346-1.177-0.624-2.008-0.624c-2.874,0-3.843,3.289-3.843,5.471
		c0,2.389,1.177,5.4,4.016,5.4c0.277,0,1.593,0,2.7-1.246c0.45-0.52,0.624-0.935,0.797-1.454L353.541,31.641z"/>
	<path d="M381.687,33.614c-1.004,0.935-3.081,2.839-7.201,2.839c-6.82,0-11.01-5.539-11.01-12.741
		c0-7.859,5.09-13.087,12.049-13.087c6.475,0,9.625,4.155,10.768,5.644l-4.64,2.805c-0.865-1.316-2.285-3.462-5.678-3.462
		c-4.64,0-6.405,3.843-6.405,7.928c0,2.77,0.762,5.021,1.938,6.232c0.935,1.004,2.597,1.766,4.467,1.766
		c1.107,0,2.354-0.277,3.358-0.935c1.593-1.039,1.8-2.354,1.973-3.636h-5.47v-4.639h10.629v13.572h-4.778V33.614z"/>
	<path d="M401.211,17.827h5.332v18.073h-5.332v-1.731c-0.52,0.589-0.831,0.936-1.8,1.42c-1.073,0.554-2.251,0.831-3.428,0.831
		c-1.178,0-3.358-0.173-4.604-1.904c-0.936-1.315-1.108-2.389-1.108-5.332V17.827h5.366v11.217c0,0.797,0,1.593,0.416,2.146
		c0.312,0.416,1.038,0.9,2.111,0.9c0.312,0,1.039,0,1.835-0.45c1.143-0.692,1.178-1.593,1.212-2.562V17.827z"/>
	<path d="M411.388,11.421h5.263v4.12h-5.263V11.421z M411.388,17.792h5.263v18.107h-5.263V17.792z"/>
	<path d="M422.084,12.599h5.298v5.644h3.497v3.254h-3.532v8.136c-0.034,1.107-0.034,2.043,1.385,2.043l1.904-0.069v4.154
		c-1.143,0.173-1.835,0.277-2.804,0.277c-1.835,0-3.844-0.104-4.986-1.766c-0.727-1.073-0.762-2.354-0.762-4.086v-8.725h-2.631
		v-3.254h2.631V12.599z"/>
	<path d="M433.612,22.951c0.104-1.247,0.277-2.735,1.904-4.016c1.662-1.315,3.809-1.593,5.92-1.593c2.216,0,7.583,0.52,7.583,5.193
		v10.525c0,1.938,0.104,2.216,0.519,2.839h-5.228v-1.662c-1.351,1.004-2.874,2.146-5.54,2.146c-4.154,0-5.92-2.978-5.92-5.505
		c0-2.908,2.319-4.57,3.809-5.193c1.454-0.624,4.882-1.247,7.132-1.662v-0.969c-0.069-0.831-0.139-2.216-2.043-2.216
		c-2.354,0-2.666,1.454-2.804,2.112H433.612z M440.363,28.387c-0.9,0.346-2.285,0.865-2.285,2.25c0,0.865,0.762,1.835,2.009,1.835
		c0.657,0,1.28-0.242,1.835-0.589c1.766-1.107,1.835-2.77,1.869-4.639L440.363,28.387z"/>
	<path d="M458.988,19.696c1.177-1.004,2.458-1.8,5.228-2.077v4.708l-1.766,0.277c-2.562,0.45-3.323,0.831-3.323,3.116v10.179h-5.332
		V17.792h5.193V19.696z"/>
	<path d="M467.781,29.806c1.454,1.42,3.255,2.493,5.263,2.493c1.281,0,3.22-0.416,3.22-1.766c0-0.623-0.381-0.866-0.692-1.039
		c-0.796-0.415-2.043-0.52-3.081-0.692c-0.797-0.139-1.628-0.312-2.424-0.554c-1.108-0.312-2.216-0.762-3.012-1.559
		c-0.797-0.796-1.351-2.042-1.351-3.393c0-2.978,2.562-6.059,7.617-6.059c4.258,0,6.82,1.835,8.066,2.7l-3.289,3.047
		c-1.696-1.315-3.289-1.8-4.535-1.8c-2.077,0-2.562,0.831-2.562,1.35c0,1.039,1.143,1.247,2.874,1.558
		c3.635,0.658,7.859,1.627,7.859,5.92c0,4.259-4.294,6.336-8.552,6.336c-5.021,0-7.617-2.424-8.76-3.497L467.781,29.806z"/>
</g>
<g>
	<polygon fill="#231F20" points="34.975,44.11 16.657,44.11 16.657,5.728 34.975,5.773 	"/>
	<path fill="#FFFFFF" d="M16.672,7.38l-0.031,36.872l12.66,0.021c0,0,3.391-4.402,2.874-9.269c-0.125-1.723-0.56-3.328-1.148-4.771
		c-0.684-1.68-1.576-3.142-2.426-4.315c-1.447-1.996-3.592-3.56-3.46-5.232c0.132-1.673,1.122-2.573,1.651-4.381
		c0.482-1.649,0.473-3.217,0.462-3.479c-0.022-0.551-0.132-1.321-0.638-1.432c-0.507-0.11-0.77,0.117-1.233,0.661
		c-0.463,0.543-0.742,1.034-1.013,1.262c-0.749,0.631-1.468,0.778-2.334,0.705c-0.866-0.074-1.707-0.43-2.444-2.048
		c-0.375-0.823-0.836-2.804-0.836-3.904C17.854,7.753,16.672,7.38,16.672,7.38z"/>
	<polygon fill="#231F20" points="18.865,11.685 18.865,14.712 16.641,14.69 16.641,11.315 16.685,5.773 18.865,5.729 	"/>
	<circle fill="#231F20" cx="28.253" cy="38.137" r="1.262"/>
	<circle fill="#231F20" cx="24.055" cy="35.069" r="1.262"/>
	<circle fill="#231F20" cx="28.253" cy="32.431" r="1.262"/>
	<path fill="#231F20" d="M19.79,17.031c0.039,1.614,0.041,1.673-0.851,1.673l-2.297-0.021c0-1.138,0-2.033,0-3.288l2.518,0.021
		C19.83,15.416,19.79,15.466,19.79,17.031L19.79,17.031z"/>
	<path fill="#231F20" d="M19.79,26.777c0.039,1.615,0.04,1.673-0.852,1.673l-2.297-0.021c0-0.829,0-2.229,0-3.289l2.517,0.022
		C19.83,25.163,19.79,25.212,19.79,26.777L19.79,26.777z"/>
	<path fill="#231F20" d="M20.802,28.7c0,0,3.42,0.519,3.919,0.527c0.499,0.01,1.527,0.088,1.806-0.264
		c0.279-0.353,0.308-0.852,0.22-1.276c-0.088-0.426-4.888-12.065-4.888-12.065s-0.235-0.749-0.573-1.145
		c-0.337-0.396-1.013-0.529-1.013-0.529L20.802,28.7z"/>
	<path fill="#231F20" d="M16.641,29.81l3.633-0.186c0,0,0.382-0.007,0.484,0.559c0.103,0.564-0.484,0.807-0.484,0.807l-3.608,0.18
		L16.641,29.81z"/>
	<path fill="#231F20" d="M16.641,33.487l4.426-0.018c0,0,0.536,0.286,0.543,0.808c0.007,0.521-0.426,0.808-0.426,0.808l-4.543-0.036
		V33.487z"/>
	<line fill="#231F20" stroke="#231F20" stroke-miterlimit="10" x1="16.979" y1="5.773" x2="17.147" y2="33.918"/>
	<line fill="#231F20" stroke="#231F20" stroke-miterlimit="10" x1="17.764" y1="5.773" x2="17.764" y2="33.768"/>
	<line fill="#231F20" stroke="#231F20" stroke-miterlimit="10" x1="18.498" y1="5.773" x2="18.498" y2="33.704"/>
	<circle fill="#231F20" cx="24.281" cy="40.745" r="1.262"/>
</g>
</svg>
